# Blender v2.82 (sub 7) OBJ File: 'jqc9_lab2.blend'
# www.blender.org
mtllib jqc9_plate.mtl
o Plate_Cone.001
v -3.460921 1.075874 -2.696363
v -3.460921 1.125874 -2.746363
v -3.434874 1.075874 -2.694085
v -3.426192 1.125874 -2.743325
v -3.409618 1.075874 -2.687317
v -3.392517 1.125874 -2.734302
v -3.385921 1.075874 -2.676267
v -3.360921 1.125874 -2.719568
v -3.364503 1.075874 -2.661270
v -3.332364 1.125874 -2.699572
v -3.346014 1.075874 -2.642781
v -3.307712 1.125874 -2.674921
v -3.331017 1.075874 -2.621363
v -3.287716 1.125874 -2.646363
v -3.319967 1.075874 -2.597666
v -3.272983 1.125874 -2.614767
v -3.313200 1.075874 -2.572411
v -3.263960 1.125874 -2.581093
v -3.310921 1.075874 -2.546363
v -3.260921 1.125874 -2.546363
v -3.313200 1.075874 -2.520316
v -3.263960 1.125874 -2.511634
v -3.319967 1.075874 -2.495060
v -3.272983 1.125874 -2.477959
v -3.331017 1.075874 -2.471363
v -3.287716 1.125874 -2.446363
v -3.346014 1.075874 -2.449945
v -3.307712 1.125874 -2.417806
v -3.364503 1.075874 -2.431457
v -3.332364 1.125874 -2.393155
v -3.385921 1.075874 -2.416460
v -3.360921 1.125874 -2.373158
v -3.409618 1.075874 -2.405410
v -3.392517 1.125874 -2.358425
v -3.434874 1.075874 -2.398642
v -3.426192 1.125874 -2.349402
v -3.460921 1.075874 -2.396363
v -3.460921 1.125874 -2.346363
v -3.486969 1.075874 -2.398642
v -3.495651 1.125874 -2.349402
v -3.512224 1.075874 -2.405409
v -3.529325 1.125874 -2.358425
v -3.535921 1.075874 -2.416460
v -3.560921 1.125874 -2.373158
v -3.557339 1.075874 -2.431457
v -3.589479 1.125874 -2.393154
v -3.575828 1.075874 -2.449945
v -3.614130 1.125874 -2.417806
v -3.590825 1.075874 -2.471363
v -3.634126 1.125874 -2.446363
v -3.601875 1.075874 -2.495060
v -3.648860 1.125874 -2.477959
v -3.608642 1.075874 -2.520316
v -3.657883 1.125874 -2.511634
v -3.610921 1.075874 -2.546363
v -3.660921 1.125874 -2.546363
v -3.608643 1.075874 -2.572411
v -3.657883 1.125874 -2.581093
v -3.601875 1.075874 -2.597666
v -3.648860 1.125874 -2.614767
v -3.590825 1.075874 -2.621363
v -3.634126 1.125874 -2.646363
v -3.575828 1.075874 -2.642781
v -3.614130 1.125874 -2.674921
v -3.557339 1.075874 -2.661270
v -3.589479 1.125874 -2.699572
v -3.535921 1.075874 -2.676267
v -3.560921 1.125874 -2.719568
v -3.512224 1.075874 -2.687317
v -3.529325 1.125874 -2.734302
v -3.486969 1.075874 -2.694084
v -3.495651 1.125874 -2.743325
vt 1.000000 0.500000
vt 1.000000 1.000000
vt 0.972222 1.000000
vt 0.972222 0.500000
vt 0.944444 1.000000
vt 0.944444 0.500000
vt 0.916667 1.000000
vt 0.916667 0.500000
vt 0.888889 1.000000
vt 0.888889 0.500000
vt 0.861111 1.000000
vt 0.861111 0.500000
vt 0.833333 1.000000
vt 0.833333 0.500000
vt 0.805555 1.000000
vt 0.805555 0.500000
vt 0.777778 1.000000
vt 0.777778 0.500000
vt 0.750000 1.000000
vt 0.750000 0.500000
vt 0.722222 1.000000
vt 0.722222 0.500000
vt 0.694444 1.000000
vt 0.694444 0.500000
vt 0.666667 1.000000
vt 0.666667 0.500000
vt 0.638889 1.000000
vt 0.638889 0.500000
vt 0.611111 1.000000
vt 0.611111 0.500000
vt 0.583333 1.000000
vt 0.583333 0.500000
vt 0.555555 1.000000
vt 0.555555 0.500000
vt 0.527778 1.000000
vt 0.527778 0.500000
vt 0.500000 1.000000
vt 0.500000 0.500000
vt 0.472222 1.000000
vt 0.472222 0.500000
vt 0.444444 1.000000
vt 0.444444 0.500000
vt 0.416666 1.000000
vt 0.416666 0.500000
vt 0.388889 1.000000
vt 0.388889 0.500000
vt 0.361111 1.000000
vt 0.361111 0.500000
vt 0.333333 1.000000
vt 0.333333 0.500000
vt 0.305555 1.000000
vt 0.305555 0.500000
vt 0.277777 1.000000
vt 0.277777 0.500000
vt 0.250000 1.000000
vt 0.250000 0.500000
vt 0.222222 1.000000
vt 0.222222 0.500000
vt 0.194444 1.000000
vt 0.194444 0.500000
vt 0.166666 1.000000
vt 0.166666 0.500000
vt 0.138889 1.000000
vt 0.138889 0.500000
vt 0.111111 1.000000
vt 0.111111 0.500000
vt 0.083333 1.000000
vt 0.083333 0.500000
vt 0.055555 1.000000
vt 0.055555 0.500000
vt 0.291676 0.486354
vt 0.250000 0.490000
vt 0.208324 0.486354
vt 0.167915 0.475526
vt 0.130000 0.457846
vt 0.095731 0.433851
vt 0.066149 0.404269
vt 0.042154 0.370000
vt 0.024474 0.332085
vt 0.013646 0.291675
vt 0.010000 0.250000
vt 0.013646 0.208324
vt 0.024474 0.167915
vt 0.042154 0.130000
vt 0.066149 0.095731
vt 0.095731 0.066149
vt 0.130000 0.042154
vt 0.167915 0.024474
vt 0.208325 0.013646
vt 0.250000 0.010000
vt 0.291676 0.013646
vt 0.332085 0.024474
vt 0.370000 0.042154
vt 0.404269 0.066149
vt 0.433851 0.095731
vt 0.457846 0.130000
vt 0.475526 0.167915
vt 0.486354 0.208324
vt 0.490000 0.250000
vt 0.486354 0.291676
vt 0.475526 0.332085
vt 0.457846 0.370000
vt 0.433851 0.404269
vt 0.404269 0.433851
vt 0.370000 0.457846
vt 0.332085 0.475526
vt 0.027777 1.000000
vt 0.027777 0.500000
vt -0.000000 1.000000
vt -0.000000 0.500000
vt 0.750000 0.490000
vt 0.791676 0.486354
vt 0.832085 0.475526
vt 0.870000 0.457846
vt 0.904269 0.433851
vt 0.933851 0.404269
vt 0.957846 0.370000
vt 0.975526 0.332085
vt 0.986354 0.291676
vt 0.990000 0.250000
vt 0.986354 0.208324
vt 0.975526 0.167915
vt 0.957846 0.130000
vt 0.933851 0.095731
vt 0.904269 0.066149
vt 0.870000 0.042154
vt 0.832085 0.024474
vt 0.791676 0.013646
vt 0.750000 0.010000
vt 0.708325 0.013646
vt 0.667915 0.024474
vt 0.630000 0.042154
vt 0.595731 0.066149
vt 0.566149 0.095731
vt 0.542154 0.130000
vt 0.524474 0.167915
vt 0.513646 0.208324
vt 0.510000 0.250000
vt 0.513646 0.291675
vt 0.524474 0.332085
vt 0.542154 0.370000
vt 0.566149 0.404269
vt 0.595731 0.433851
vt 0.630000 0.457846
vt 0.667915 0.475526
vt 0.708324 0.486354
vn 0.0617 -0.7058 -0.7058
vn 0.1834 -0.7058 -0.6843
vn 0.2994 -0.7058 -0.6421
vn 0.4064 -0.7058 -0.5803
vn 0.5010 -0.7058 -0.5009
vn 0.5803 -0.7058 -0.4064
vn 0.6421 -0.7058 -0.2994
vn 0.6843 -0.7058 -0.1834
vn 0.7058 -0.7058 -0.0617
vn 0.7058 -0.7058 0.0617
vn 0.6843 -0.7058 0.1834
vn 0.6421 -0.7058 0.2994
vn 0.5803 -0.7058 0.4064
vn 0.5009 -0.7058 0.5010
vn 0.4064 -0.7058 0.5803
vn 0.2994 -0.7058 0.6421
vn 0.1834 -0.7058 0.6843
vn 0.0617 -0.7058 0.7058
vn -0.0618 -0.7058 0.7058
vn -0.1834 -0.7058 0.6843
vn -0.2994 -0.7058 0.6421
vn -0.4064 -0.7058 0.5803
vn -0.5010 -0.7058 0.5010
vn -0.5803 -0.7058 0.4064
vn -0.6421 -0.7058 0.2994
vn -0.6843 -0.7058 0.1834
vn -0.7058 -0.7058 0.0617
vn -0.7058 -0.7058 -0.0617
vn -0.6843 -0.7058 -0.1834
vn -0.6421 -0.7058 -0.2994
vn -0.5803 -0.7058 -0.4064
vn -0.5009 -0.7058 -0.5010
vn -0.4064 -0.7058 -0.5803
vn -0.2994 -0.7058 -0.6421
vn 0.0000 1.0000 0.0000
vn -0.1834 -0.7058 -0.6843
vn -0.0617 -0.7058 -0.7058
vn 0.0000 -1.0000 -0.0000
usemtl Plate
s off
f 1/1/1 2/2/1 4/3/1 3/4/1
f 3/4/2 4/3/2 6/5/2 5/6/2
f 5/6/3 6/5/3 8/7/3 7/8/3
f 7/8/4 8/7/4 10/9/4 9/10/4
f 9/10/5 10/9/5 12/11/5 11/12/5
f 11/12/6 12/11/6 14/13/6 13/14/6
f 13/14/7 14/13/7 16/15/7 15/16/7
f 15/16/8 16/15/8 18/17/8 17/18/8
f 17/18/9 18/17/9 20/19/9 19/20/9
f 19/20/10 20/19/10 22/21/10 21/22/10
f 21/22/11 22/21/11 24/23/11 23/24/11
f 23/24/12 24/23/12 26/25/12 25/26/12
f 25/26/13 26/25/13 28/27/13 27/28/13
f 27/28/14 28/27/14 30/29/14 29/30/14
f 29/30/15 30/29/15 32/31/15 31/32/15
f 31/32/16 32/31/16 34/33/16 33/34/16
f 33/34/17 34/33/17 36/35/17 35/36/17
f 35/36/18 36/35/18 38/37/18 37/38/18
f 37/38/19 38/37/19 40/39/19 39/40/19
f 39/40/20 40/39/20 42/41/20 41/42/20
f 41/42/21 42/41/21 44/43/21 43/44/21
f 43/44/22 44/43/22 46/45/22 45/46/22
f 45/46/23 46/45/23 48/47/23 47/48/23
f 47/48/24 48/47/24 50/49/24 49/50/24
f 49/50/25 50/49/25 52/51/25 51/52/25
f 51/52/26 52/51/26 54/53/26 53/54/26
f 53/54/27 54/53/27 56/55/27 55/56/27
f 55/56/28 56/55/28 58/57/28 57/58/28
f 57/58/29 58/57/29 60/59/29 59/60/29
f 59/60/30 60/59/30 62/61/30 61/62/30
f 61/62/31 62/61/31 64/63/31 63/64/31
f 63/64/32 64/63/32 66/65/32 65/66/32
f 65/66/33 66/65/33 68/67/33 67/68/33
f 67/68/34 68/67/34 70/69/34 69/70/34
f 4/71/35 2/72/35 72/73/35 70/74/35 68/75/35 66/76/35 64/77/35 62/78/35 60/79/35 58/80/35 56/81/35 54/82/35 52/83/35 50/84/35 48/85/35 46/86/35 44/87/35 42/88/35 40/89/35 38/90/35 36/91/35 34/92/35 32/93/35 30/94/35 28/95/35 26/96/35 24/97/35 22/98/35 20/99/35 18/100/35 16/101/35 14/102/35 12/103/35 10/104/35 8/105/35 6/106/35
f 69/70/36 70/69/36 72/107/36 71/108/36
f 71/108/37 72/107/37 2/109/37 1/110/37
f 1/111/38 3/112/38 5/113/38 7/114/38 9/115/38 11/116/38 13/117/38 15/118/38 17/119/38 19/120/38 21/121/38 23/122/38 25/123/38 27/124/38 29/125/38 31/126/38 33/127/38 35/128/38 37/129/38 39/130/38 41/131/38 43/132/38 45/133/38 47/134/38 49/135/38 51/136/38 53/137/38 55/138/38 57/139/38 59/140/38 61/141/38 63/142/38 65/143/38 67/144/38 69/145/38 71/146/38
