# Blender v2.82 (sub 7) OBJ File: 'jqc9_lab2.blend'
# www.blender.org
mtllib jqc9_table.mtl
o Tabletop_Cube.001
v -4.718448 0.937348 -1.317043
v -4.718448 1.002156 -1.229234
v -4.802984 1.002156 -1.317043
v -4.718448 0.942281 -1.283440
v -4.718448 0.956330 -1.254953
v -4.750798 0.942281 -1.317043
v -4.751609 0.948235 -1.282598
v -4.749927 0.959625 -1.259418
v -4.767255 0.964739 -1.266346
v -4.750798 1.002156 -1.235918
v -4.778224 1.002156 -1.254953
v -4.718448 0.977355 -1.235918
v -4.751609 0.976734 -1.243985
v -4.773925 0.978023 -1.259418
v -4.796549 0.977355 -1.317043
v -4.778224 0.956330 -1.317043
v -4.796549 1.002156 -1.283440
v -4.788783 0.976734 -1.282598
v -4.773925 0.959625 -1.284345
v -4.718448 1.002156 -1.229234
v -4.718448 1.066965 -1.317043
v -4.802984 1.002156 -1.317043
v -4.718448 1.026957 -1.235918
v -4.718448 1.047983 -1.254953
v -4.750798 1.002156 -1.235918
v -4.751609 1.027579 -1.243985
v -4.749927 1.044687 -1.259418
v -4.767255 1.039574 -1.266346
v -4.750798 1.062032 -1.317043
v -4.778224 1.047983 -1.317043
v -4.718448 1.062032 -1.283440
v -4.751609 1.056078 -1.282598
v -4.773925 1.044687 -1.284345
v -4.796549 1.002156 -1.283440
v -4.778224 1.002156 -1.254953
v -4.796549 1.026957 -1.317043
v -4.788783 1.027579 -1.282598
v -4.773925 1.026289 -1.259418
v -4.718448 0.937348 -3.775684
v -4.802984 1.002156 -3.775684
v -4.718448 1.002156 -3.863492
v -4.750798 0.942281 -3.775684
v -4.778224 0.956330 -3.775684
v -4.718448 0.942281 -3.809287
v -4.751609 0.948235 -3.810129
v -4.773925 0.959625 -3.808381
v -4.767255 0.964739 -3.826380
v -4.796549 1.002156 -3.809287
v -4.778224 1.002156 -3.837774
v -4.796549 0.977355 -3.775684
v -4.788783 0.976734 -3.810129
v -4.773925 0.978023 -3.833309
v -4.718448 0.977355 -3.856809
v -4.718448 0.956330 -3.837774
v -4.750798 1.002156 -3.856809
v -4.751609 0.976734 -3.848742
v -4.749927 0.959625 -3.833309
v -4.718448 1.066965 -3.775684
v -4.718448 1.002156 -3.863492
v -4.802984 1.002156 -3.775684
v -4.718448 1.062032 -3.809287
v -4.718448 1.047983 -3.837774
v -4.750798 1.062032 -3.775684
v -4.751609 1.056078 -3.810129
v -4.749927 1.044687 -3.833309
v -4.767255 1.039574 -3.826380
v -4.750798 1.002156 -3.856809
v -4.778224 1.002156 -3.837774
v -4.718448 1.026957 -3.856809
v -4.751609 1.027579 -3.848742
v -4.773925 1.026289 -3.833309
v -4.796549 1.026957 -3.775684
v -4.778224 1.047983 -3.775684
v -4.796549 1.002156 -3.809287
v -4.788783 1.027579 -3.810129
v -4.773925 1.044687 -3.808381
v -3.196797 0.937348 -1.317043
v -3.112261 1.002156 -1.317043
v -3.196797 1.002156 -1.229234
v -3.164446 0.942281 -1.317043
v -3.137021 0.956330 -1.317043
v -3.196797 0.942281 -1.283440
v -3.163635 0.948235 -1.282598
v -3.141320 0.959625 -1.284345
v -3.147990 0.964739 -1.266346
v -3.118695 1.002156 -1.283440
v -3.137021 1.002156 -1.254953
v -3.118695 0.977355 -1.317043
v -3.126462 0.976734 -1.282598
v -3.141320 0.978023 -1.259418
v -3.196797 0.977355 -1.235918
v -3.196797 0.956330 -1.254953
v -3.164446 1.002156 -1.235918
v -3.163635 0.976734 -1.243985
v -3.165318 0.959625 -1.259418
v -3.196797 1.066965 -1.317043
v -3.196797 1.002156 -1.229234
v -3.112261 1.002156 -1.317043
v -3.196797 1.062032 -1.283440
v -3.196797 1.047983 -1.254953
v -3.164446 1.062032 -1.317043
v -3.163635 1.056078 -1.282598
v -3.165318 1.044687 -1.259418
v -3.147990 1.039574 -1.266346
v -3.164446 1.002156 -1.235918
v -3.137021 1.002156 -1.254953
v -3.196797 1.026957 -1.235918
v -3.163635 1.027579 -1.243985
v -3.141320 1.026289 -1.259418
v -3.118695 1.026957 -1.317043
v -3.137021 1.047983 -1.317043
v -3.118695 1.002156 -1.283440
v -3.126462 1.027579 -1.282598
v -3.141320 1.044687 -1.284345
v -3.196797 0.937348 -3.775684
v -3.196797 1.002156 -3.863492
v -3.112261 1.002156 -3.775684
v -3.196797 0.942281 -3.809287
v -3.196797 0.956330 -3.837774
v -3.164446 0.942281 -3.775684
v -3.163635 0.948235 -3.810129
v -3.165318 0.959625 -3.833309
v -3.147990 0.964739 -3.826380
v -3.164446 1.002156 -3.856809
v -3.137021 1.002156 -3.837774
v -3.196797 0.977355 -3.856809
v -3.163635 0.976734 -3.848742
v -3.141320 0.978023 -3.833309
v -3.118695 0.977355 -3.775684
v -3.137021 0.956330 -3.775684
v -3.118695 1.002156 -3.809287
v -3.126462 0.976734 -3.810129
v -3.141320 0.959625 -3.808381
v -3.196797 1.066965 -3.775684
v -3.112261 1.002156 -3.775684
v -3.196797 1.002156 -3.863492
v -3.164446 1.062032 -3.775684
v -3.137021 1.047983 -3.775684
v -3.196797 1.062032 -3.809287
v -3.163635 1.056078 -3.810129
v -3.141320 1.044687 -3.808381
v -3.147990 1.039574 -3.826380
v -3.118695 1.002156 -3.809287
v -3.137021 1.002156 -3.837774
v -3.118695 1.026957 -3.775684
v -3.126462 1.027579 -3.810129
v -3.141320 1.026289 -3.833309
v -3.196797 1.026957 -3.856809
v -3.196797 1.047983 -3.837774
v -3.164446 1.002156 -3.856809
v -3.163635 1.027579 -3.848742
v -3.165318 1.044687 -3.833309
vt 0.500000 0.762500
vt 0.500000 0.762500
vt 0.500000 0.987500
vt 0.500000 0.987500
vt 0.500000 0.508333
vt 0.500000 0.508333
vt 0.500000 0.741667
vt 0.500000 0.741667
vt 0.637500 0.508333
vt 0.862500 0.508333
vt 0.862500 0.741667
vt 0.637500 0.741667
vt 0.500000 0.008333
vt 0.500000 0.008333
vt 0.500000 0.241667
vt 0.500000 0.241667
vt 0.500000 0.262500
vt 0.500000 0.262500
vt 0.500000 0.487500
vt 0.500000 0.487500
vt 0.137500 0.741667
vt 0.137500 0.744856
vt 0.132597 0.744936
vt 0.132716 0.741667
vt 0.137500 0.750000
vt 0.132845 0.750000
vt 0.125000 0.744770
vt 0.125000 0.741667
vt 0.130283 0.750000
vt 0.500000 0.992284
vt 0.450966 0.992403
vt 0.452165 0.987500
vt 0.500000 1.000000
vt 0.453454 1.000000
vt 0.375000 0.992155
vt 0.375000 0.987500
vt 0.427831 1.000000
vt 0.452165 0.008333
vt 0.450966 0.005064
vt 0.500000 0.005144
vt 0.375000 0.008333
vt 0.375000 0.005230
vt 0.453454 0.000000
vt 0.500000 0.000000
vt 0.375000 0.003522
vt 0.547835 0.987500
vt 0.549034 0.992404
vt 0.500000 0.992284
vt 0.625000 0.987500
vt 0.625000 0.992155
vt 0.546546 1.000000
vt 0.500000 1.000000
vt 0.625000 0.994717
vt 0.867284 0.741667
vt 0.867403 0.744936
vt 0.862500 0.744856
vt 0.875000 0.741667
vt 0.875000 0.744770
vt 0.867155 0.750000
vt 0.862500 0.750000
vt 0.875000 0.746478
vt 0.500000 0.005144
vt 0.549034 0.005064
vt 0.547835 0.008333
vt 0.500000 0.000000
vt 0.546546 0.000000
vt 0.625000 0.005230
vt 0.625000 0.008333
vt 0.572169 0.000000
vt 0.137500 0.508333
vt 0.132716 0.508333
vt 0.132597 0.505064
vt 0.137500 0.505144
vt 0.125000 0.508333
vt 0.125000 0.505230
vt 0.132845 0.500000
vt 0.137500 0.500000
vt 0.125000 0.503522
vt 0.500000 0.244856
vt 0.450966 0.244936
vt 0.452165 0.241667
vt 0.500000 0.250000
vt 0.453454 0.250000
vt 0.375000 0.244770
vt 0.375000 0.241667
vt 0.427831 0.250000
vt 0.452165 0.262500
vt 0.450966 0.257597
vt 0.500000 0.257716
vt 0.375000 0.262500
vt 0.375000 0.257845
vt 0.375000 0.255283
vt 0.862500 0.505144
vt 0.867403 0.505064
vt 0.867284 0.508333
vt 0.862500 0.500000
vt 0.867155 0.500000
vt 0.875000 0.505230
vt 0.875000 0.508333
vt 0.869717 0.500000
vt 0.500000 0.257716
vt 0.549034 0.257597
vt 0.547835 0.262500
vt 0.500000 0.250000
vt 0.546546 0.250000
vt 0.625000 0.257845
vt 0.625000 0.262500
vt 0.572169 0.250000
vt 0.547835 0.241667
vt 0.549034 0.244936
vt 0.500000 0.244856
vt 0.625000 0.241667
vt 0.625000 0.244770
vt 0.625000 0.246478
vt 0.362500 0.741667
vt 0.367284 0.741667
vt 0.367403 0.744936
vt 0.362500 0.744856
vt 0.375000 0.741667
vt 0.375000 0.744770
vt 0.367155 0.750000
vt 0.362500 0.750000
vt 0.392610 0.750587
vt 0.500000 0.744856
vt 0.450966 0.744936
vt 0.452165 0.741667
vt 0.500000 0.750000
vt 0.453454 0.750000
vt 0.452165 0.762500
vt 0.450966 0.757597
vt 0.500000 0.757717
vt 0.375000 0.762500
vt 0.375000 0.757845
vt 0.637500 0.744856
vt 0.632597 0.744936
vt 0.632716 0.741667
vt 0.637500 0.750000
vt 0.632845 0.750000
vt 0.625000 0.744770
vt 0.625000 0.741667
vt 0.609151 0.748826
vt 0.500000 0.757717
vt 0.549034 0.757597
vt 0.547835 0.762500
vt 0.500000 0.750000
vt 0.546546 0.750000
vt 0.625000 0.757845
vt 0.625000 0.762500
vt 0.547835 0.741667
vt 0.549034 0.744936
vt 0.500000 0.744856
vt 0.362500 0.508333
vt 0.362500 0.505144
vt 0.367403 0.505064
vt 0.367284 0.508333
vt 0.362500 0.500000
vt 0.367155 0.500000
vt 0.375000 0.505230
vt 0.375000 0.508333
vt 0.390849 0.501174
vt 0.500000 0.492284
vt 0.450966 0.492403
vt 0.452165 0.487500
vt 0.500000 0.500000
vt 0.453454 0.500000
vt 0.375000 0.492155
vt 0.375000 0.487500
vt 0.452165 0.508333
vt 0.450966 0.505064
vt 0.500000 0.505144
vt 0.632716 0.508333
vt 0.632597 0.505064
vt 0.637500 0.505144
vt 0.625000 0.508333
vt 0.625000 0.505230
vt 0.632845 0.500000
vt 0.637500 0.500000
vt 0.607390 0.499413
vt 0.500000 0.505144
vt 0.549034 0.505064
vt 0.547835 0.508333
vt 0.500000 0.500000
vt 0.546546 0.500000
vt 0.547835 0.487500
vt 0.549034 0.492403
vt 0.500000 0.492284
vt 0.625000 0.487500
vt 0.625000 0.492155
vn 0.0000 0.0000 1.0000
vn 0.0000 1.0000 0.0000
vn -0.1601 -0.9750 0.1541
vn -0.1513 -0.8849 0.4406
vn -0.4546 -0.8789 0.1447
vn -0.4256 -0.8069 0.4097
vn -0.2089 -0.2725 0.9392
vn -0.5571 -0.2403 0.7949
vn -0.1686 -0.6650 0.7275
vn -0.4633 -0.6043 0.6483
vn -0.9447 -0.2639 0.1947
vn -0.7411 -0.6522 0.1592
vn -0.8147 -0.2370 0.5292
vn -0.6676 -0.5991 0.4422
vn -0.2089 0.2725 0.9392
vn -0.1686 0.6650 0.7275
vn -0.5571 0.2403 0.7949
vn -0.4633 0.6043 0.6483
vn -0.1601 0.9750 0.1541
vn -0.4546 0.8789 0.1447
vn -0.1513 0.8849 0.4406
vn -0.4256 0.8069 0.4097
vn -0.9447 0.2639 0.1947
vn -0.8147 0.2370 0.5292
vn -0.7411 0.6522 0.1592
vn -0.6676 0.5991 0.4422
vn -0.1601 -0.9750 -0.1541
vn -0.4546 -0.8789 -0.1447
vn -0.1513 -0.8849 -0.4406
vn -0.4256 -0.8069 -0.4097
vn -0.9447 -0.2639 -0.1947
vn -0.8147 -0.2371 -0.5292
vn -0.7411 -0.6522 -0.1592
vn -0.6676 -0.5991 -0.4422
vn -0.2089 -0.2725 -0.9392
vn -0.1686 -0.6650 -0.7275
vn -0.5571 -0.2403 -0.7949
vn -0.4633 -0.6043 -0.6483
vn -0.1601 0.9750 -0.1541
vn -0.1513 0.8849 -0.4406
vn -0.4546 0.8789 -0.1447
vn -0.4256 0.8069 -0.4097
vn -0.2089 0.2725 -0.9392
vn -0.5571 0.2403 -0.7949
vn -0.1686 0.6650 -0.7275
vn -0.4633 0.6043 -0.6483
vn -0.9447 0.2639 -0.1947
vn -0.7411 0.6522 -0.1592
vn -0.8147 0.2370 -0.5292
vn -0.6676 0.5991 -0.4422
vn 0.1601 -0.9750 0.1541
vn 0.4546 -0.8789 0.1447
vn 0.1513 -0.8849 0.4406
vn 0.4256 -0.8069 0.4097
vn 0.9447 -0.2639 0.1947
vn 0.8147 -0.2371 0.5292
vn 0.7411 -0.6522 0.1592
vn 0.6675 -0.5991 0.4421
vn 0.2089 -0.2725 0.9392
vn 0.1686 -0.6650 0.7275
vn 0.5571 -0.2402 0.7949
vn 0.4633 -0.6043 0.6483
vn 0.1601 0.9750 0.1541
vn 0.1513 0.8849 0.4406
vn 0.4546 0.8789 0.1447
vn 0.4256 0.8069 0.4097
vn 0.2089 0.2725 0.9392
vn 0.5571 0.2402 0.7949
vn 0.1686 0.6650 0.7275
vn 0.4633 0.6043 0.6483
vn 0.9447 0.2639 0.1947
vn 0.7411 0.6522 0.1592
vn 0.8147 0.2370 0.5292
vn 0.6675 0.5991 0.4421
vn 0.1601 -0.9750 -0.1541
vn 0.1513 -0.8849 -0.4406
vn 0.4546 -0.8789 -0.1447
vn 0.4256 -0.8069 -0.4097
vn 0.2089 -0.2725 -0.9392
vn 0.5571 -0.2402 -0.7949
vn 0.1686 -0.6650 -0.7275
vn 0.4633 -0.6043 -0.6483
vn 0.9447 -0.2639 -0.1947
vn 0.7411 -0.6522 -0.1592
vn 0.8147 -0.2370 -0.5292
vn 0.6675 -0.5991 -0.4421
vn 0.1601 0.9750 -0.1541
vn 0.4546 0.8789 -0.1447
vn 0.1513 0.8849 -0.4406
vn 0.4256 0.8069 -0.4097
vn 0.9447 0.2639 -0.1947
vn 0.8147 0.2371 -0.5292
vn 0.7411 0.6522 -0.1592
vn 0.6676 0.5991 -0.4421
vn 0.2089 0.2725 -0.9392
vn 0.1686 0.6650 -0.7275
vn 0.5571 0.2402 -0.7949
vn 0.4633 0.6043 -0.6483
vn -0.1508 -0.9886 0.0000
vn -0.4559 -0.8900 0.0000
vn -0.7539 -0.6570 0.0000
vn -0.9679 -0.2512 0.0000
vn -0.1508 0.9886 0.0000
vn -0.4559 0.8900 0.0000
vn -0.7539 0.6570 0.0000
vn -0.9679 0.2512 0.0000
vn 0.0000 -0.9894 -0.1453
vn 0.0000 -0.8969 -0.4423
vn 0.0000 -0.6711 -0.7413
vn 0.0000 -0.2602 -0.9656
vn 0.0000 0.9894 -0.1453
vn 0.0000 0.8969 -0.4423
vn 0.0000 0.6711 -0.7413
vn 0.0000 0.2602 -0.9656
vn 0.1507 -0.9886 0.0000
vn 0.4559 -0.8900 0.0000
vn 0.7539 -0.6570 0.0000
vn 0.9680 -0.2511 0.0000
vn 0.1507 0.9886 0.0000
vn 0.4559 0.8900 0.0000
vn 0.7539 0.6570 0.0000
vn 0.9680 0.2511 0.0000
vn 0.0000 -0.9894 0.1453
vn 0.0000 -0.8969 0.4423
vn 0.0000 -0.6711 0.7413
vn 0.0000 -0.2602 0.9656
vn 0.0000 0.9894 0.1453
vn 0.0000 0.8969 0.4423
vn 0.0000 0.6711 0.7413
vn 0.0000 0.2602 0.9656
vn 0.0000 -1.0000 0.0000
usemtl Table
s off
f 79/1/1 97/2/1 20/3/1 2/4/1
f 117/5/1 135/6/1 98/7/1 78/8/1
f 134/9/2 58/10/2 21/11/2 96/12/2
f 3/13/1 22/14/1 60/15/1 40/16/1
f 41/17/1 59/18/1 136/19/1 116/20/1
f 1/21/3 4/22/3 7/23/3 6/24/3
f 4/22/4 5/25/4 8/26/4 7/23/4
f 6/24/5 7/23/5 19/27/5 16/28/5
f 7/23/6 8/26/6 9/29/6 19/27/6
f 2/4/7 10/30/7 13/31/7 12/32/7
f 10/30/8 11/33/8 14/34/8 13/31/8
f 12/32/9 13/31/9 8/35/9 5/36/9
f 13/31/10 14/34/10 9/37/10 8/35/10
f 3/13/11 15/38/11 18/39/11 17/40/11
f 15/38/12 16/41/12 19/42/12 18/39/12
f 17/40/13 18/39/13 14/43/13 11/44/13
f 18/39/14 19/42/14 9/45/14 14/43/14
f 20/3/15 23/46/15 26/47/15 25/48/15
f 23/46/16 24/49/16 27/50/16 26/47/16
f 25/48/17 26/47/17 38/51/17 35/52/17
f 26/47/18 27/50/18 28/53/18 38/51/18
f 21/11/19 29/54/19 32/55/19 31/56/19
f 29/54/20 30/57/20 33/58/20 32/55/20
f 31/56/21 32/55/21 27/59/21 24/60/21
f 32/55/22 33/58/22 28/61/22 27/59/22
f 22/14/23 34/62/23 37/63/23 36/64/23
f 34/62/24 35/65/24 38/66/24 37/63/24
f 36/64/25 37/63/25 33/67/25 30/68/25
f 37/63/26 38/66/26 28/69/26 33/67/26
f 39/70/27 42/71/27 45/72/27 44/73/27
f 42/71/28 43/74/28 46/75/28 45/72/28
f 44/73/29 45/72/29 57/76/29 54/77/29
f 45/72/30 46/75/30 47/78/30 57/76/30
f 40/16/31 48/79/31 51/80/31 50/81/31
f 48/79/32 49/82/32 52/83/32 51/80/32
f 50/81/33 51/80/33 46/84/33 43/85/33
f 51/80/34 52/83/34 47/86/34 46/84/34
f 41/17/35 53/87/35 56/88/35 55/89/35
f 53/87/36 54/90/36 57/91/36 56/88/36
f 55/89/37 56/88/37 52/83/37 49/82/37
f 56/88/38 57/91/38 47/92/38 52/83/38
f 58/10/39 61/93/39 64/94/39 63/95/39
f 61/93/40 62/96/40 65/97/40 64/94/40
f 63/95/41 64/94/41 76/98/41 73/99/41
f 64/94/42 65/97/42 66/100/42 76/98/42
f 59/18/43 67/101/43 70/102/43 69/103/43
f 67/101/44 68/104/44 71/105/44 70/102/44
f 69/103/45 70/102/45 65/106/45 62/107/45
f 70/102/46 71/105/46 66/108/46 65/106/46
f 60/15/47 72/109/47 75/110/47 74/111/47
f 72/109/48 73/112/48 76/113/48 75/110/48
f 74/111/49 75/110/49 71/105/49 68/104/49
f 75/110/50 76/113/50 66/114/50 71/105/50
f 77/115/51 80/116/51 83/117/51 82/118/51
f 80/116/52 81/119/52 84/120/52 83/117/52
f 82/118/53 83/117/53 95/121/53 92/122/53
f 83/117/54 84/120/54 85/123/54 95/121/54
f 78/8/55 86/124/55 89/125/55 88/126/55
f 86/124/56 87/127/56 90/128/56 89/125/56
f 88/126/57 89/125/57 84/120/57 81/119/57
f 89/125/58 90/128/58 85/123/58 84/120/58
f 79/1/59 91/129/59 94/130/59 93/131/59
f 91/129/60 92/132/60 95/133/60 94/130/60
f 93/131/61 94/130/61 90/128/61 87/127/61
f 94/130/62 95/133/62 85/123/62 90/128/62
f 96/12/63 99/134/63 102/135/63 101/136/63
f 99/134/64 100/137/64 103/138/64 102/135/64
f 101/136/65 102/135/65 114/139/65 111/140/65
f 102/135/66 103/138/66 104/141/66 114/139/66
f 97/2/67 105/142/67 108/143/67 107/144/67
f 105/142/68 106/145/68 109/146/68 108/143/68
f 107/144/69 108/143/69 103/147/69 100/148/69
f 108/143/70 109/146/70 104/141/70 103/147/70
f 98/7/71 110/149/71 113/150/71 112/151/71
f 110/149/72 111/140/72 114/139/72 113/150/72
f 112/151/73 113/150/73 109/146/73 106/145/73
f 113/150/74 114/139/74 104/141/74 109/146/74
f 115/152/75 118/153/75 121/154/75 120/155/75
f 118/153/76 119/156/76 122/157/76 121/154/76
f 120/155/77 121/154/77 133/158/77 130/159/77
f 121/154/78 122/157/78 123/160/78 133/158/78
f 116/20/79 124/161/79 127/162/79 126/163/79
f 124/161/80 125/164/80 128/165/80 127/162/80
f 126/163/81 127/162/81 122/166/81 119/167/81
f 127/162/82 128/165/82 123/160/82 122/166/82
f 117/5/83 129/168/83 132/169/83 131/170/83
f 129/168/84 130/159/84 133/158/84 132/169/84
f 131/170/85 132/169/85 128/165/85 125/164/85
f 132/169/86 133/158/86 123/160/86 128/165/86
f 134/9/87 137/171/87 140/172/87 139/173/87
f 137/171/88 138/174/88 141/175/88 140/172/88
f 139/173/89 140/172/89 152/176/89 149/177/89
f 140/172/90 141/175/90 142/178/90 152/176/90
f 135/6/91 143/179/91 146/180/91 145/181/91
f 143/179/92 144/182/92 147/183/92 146/180/92
f 145/181/93 146/180/93 141/175/93 138/174/93
f 146/180/94 147/183/94 142/178/94 141/175/94
f 136/19/95 148/184/95 151/185/95 150/186/95
f 148/184/96 149/187/96 152/188/96 151/185/96
f 150/186/97 151/185/97 147/183/97 144/182/97
f 151/185/98 152/188/98 142/178/98 147/183/98
f 39/70/99 1/21/99 6/24/99 42/71/99
f 42/71/100 6/24/100 16/28/100 43/74/100
f 43/85/101 16/41/101 15/38/101 50/81/101
f 50/81/102 15/38/102 3/13/102 40/16/102
f 2/4/1 20/3/1 25/48/1 10/30/1
f 10/30/1 25/48/1 35/52/1 11/33/1
f 11/44/1 35/65/1 34/62/1 17/40/1
f 17/40/1 34/62/1 22/14/1 3/13/1
f 21/11/103 58/10/103 63/95/103 29/54/103
f 29/54/104 63/95/104 73/99/104 30/57/104
f 30/68/105 73/112/105 72/109/105 36/64/105
f 36/64/106 72/109/106 60/15/106 22/14/106
f 59/18/1 41/17/1 55/89/1 67/101/1
f 67/101/1 55/89/1 49/82/1 68/104/1
f 68/104/1 49/82/1 48/79/1 74/111/1
f 74/111/1 48/79/1 40/16/1 60/15/1
f 115/152/107 39/70/107 44/73/107 118/153/107
f 118/153/108 44/73/108 54/77/108 119/156/108
f 119/167/109 54/90/109 53/87/109 126/163/109
f 126/163/110 53/87/110 41/17/110 116/20/110
f 58/10/111 134/9/111 139/173/111 61/93/111
f 61/93/112 139/173/112 149/177/112 62/96/112
f 62/107/113 149/187/113 148/184/113 69/103/113
f 69/103/114 148/184/114 136/19/114 59/18/114
f 135/6/1 117/5/1 131/170/1 143/179/1
f 143/179/1 131/170/1 125/164/1 144/182/1
f 144/182/1 125/164/1 124/161/1 150/186/1
f 150/186/1 124/161/1 116/20/1 136/19/1
f 77/115/115 115/152/115 120/155/115 80/116/115
f 80/116/116 120/155/116 130/159/116 81/119/116
f 81/119/117 130/159/117 129/168/117 88/126/117
f 88/126/118 129/168/118 117/5/118 78/8/118
f 134/9/119 96/12/119 101/136/119 137/171/119
f 137/171/120 101/136/120 111/140/120 138/174/120
f 138/174/121 111/140/121 110/149/121 145/181/121
f 145/181/122 110/149/122 98/7/122 135/6/122
f 97/2/1 79/1/1 93/131/1 105/142/1
f 105/142/1 93/131/1 87/127/1 106/145/1
f 106/145/1 87/127/1 86/124/1 112/151/1
f 112/151/1 86/124/1 78/8/1 98/7/1
f 1/21/123 77/115/123 82/118/123 4/22/123
f 4/22/124 82/118/124 92/122/124 5/25/124
f 5/36/125 92/132/125 91/129/125 12/32/125
f 12/32/126 91/129/126 79/1/126 2/4/126
f 96/12/127 21/11/127 31/56/127 99/134/127
f 99/134/128 31/56/128 24/60/128 100/137/128
f 100/148/129 24/49/129 23/46/129 107/144/129
f 107/144/130 23/46/130 20/3/130 97/2/130
f 39/70/131 115/152/131 77/115/131 1/21/131
o TableLegs_Cube.002
v -3.317705 0.002703 -1.351022
v -3.317705 1.002703 -1.351022
v -3.317705 0.002703 -1.451022
v -3.317705 1.002703 -1.451022
v -3.217705 0.002703 -1.351022
v -3.217705 1.002703 -1.351022
v -3.217705 0.002703 -1.451022
v -3.217705 1.002703 -1.451022
v -4.597540 0.002703 -1.351022
v -4.597540 1.002703 -1.351022
v -4.597540 0.002703 -1.451022
v -4.597540 1.002703 -1.451022
v -4.697540 0.002703 -1.351022
v -4.697540 1.002703 -1.351022
v -4.697540 0.002703 -1.451022
v -4.697540 1.002703 -1.451022
v -3.317705 0.002703 -3.741704
v -3.317705 1.002703 -3.741704
v -3.317705 0.002703 -3.641704
v -3.317705 1.002703 -3.641704
v -3.217705 0.002703 -3.741704
v -3.217705 1.002703 -3.741704
v -3.217705 0.002703 -3.641704
v -3.217705 1.002703 -3.641704
v -4.597540 0.002703 -3.741704
v -4.597540 1.002703 -3.741704
v -4.597540 0.002703 -3.641704
v -4.597540 1.002703 -3.641704
v -4.697540 0.002703 -3.741704
v -4.697540 1.002703 -3.741704
v -4.697540 0.002703 -3.641704
v -4.697540 1.002703 -3.641704
vt 0.375000 0.000000
vt 0.625000 0.000000
vt 0.625000 0.250000
vt 0.375000 0.250000
vt 0.625000 0.500000
vt 0.375000 0.500000
vt 0.625000 0.750000
vt 0.375000 0.750000
vt 0.625000 1.000000
vt 0.375000 1.000000
vt 0.125000 0.500000
vt 0.125000 0.750000
vt 0.875000 0.500000
vt 0.875000 0.750000
vt 0.375000 0.000000
vt 0.375000 0.250000
vt 0.625000 0.250000
vt 0.625000 0.000000
vt 0.375000 0.500000
vt 0.625000 0.500000
vt 0.375000 0.750000
vt 0.625000 0.750000
vt 0.375000 1.000000
vt 0.625000 1.000000
vt 0.125000 0.500000
vt 0.125000 0.750000
vt 0.875000 0.750000
vt 0.875000 0.500000
vt 0.375000 0.000000
vt 0.375000 0.250000
vt 0.625000 0.250000
vt 0.625000 0.000000
vt 0.375000 0.500000
vt 0.625000 0.500000
vt 0.375000 0.750000
vt 0.625000 0.750000
vt 0.375000 1.000000
vt 0.625000 1.000000
vt 0.125000 0.500000
vt 0.125000 0.750000
vt 0.875000 0.750000
vt 0.875000 0.500000
vt 0.375000 0.000000
vt 0.625000 0.000000
vt 0.625000 0.250000
vt 0.375000 0.250000
vt 0.625000 0.500000
vt 0.375000 0.500000
vt 0.625000 0.750000
vt 0.375000 0.750000
vt 0.625000 1.000000
vt 0.375000 1.000000
vt 0.125000 0.500000
vt 0.125000 0.750000
vt 0.875000 0.500000
vt 0.875000 0.750000
vn -1.0000 0.0000 0.0000
vn 0.0000 0.0000 -1.0000
vn 1.0000 0.0000 0.0000
vn 0.0000 0.0000 1.0000
vn 0.0000 -1.0000 0.0000
vn 0.0000 1.0000 0.0000
usemtl Table
s off
f 153/189/132 154/190/132 156/191/132 155/192/132
f 155/192/133 156/191/133 160/193/133 159/194/133
f 159/194/134 160/193/134 158/195/134 157/196/134
f 157/196/135 158/195/135 154/197/135 153/198/135
f 155/199/136 159/194/136 157/196/136 153/200/136
f 160/193/137 156/201/137 154/202/137 158/195/137
f 161/203/134 163/204/134 164/205/134 162/206/134
f 163/204/133 167/207/133 168/208/133 164/205/133
f 167/207/132 165/209/132 166/210/132 168/208/132
f 165/209/135 161/211/135 162/212/135 166/210/135
f 163/213/136 161/214/136 165/209/136 167/207/136
f 168/208/137 166/210/137 162/215/137 164/216/137
f 169/217/132 171/218/132 172/219/132 170/220/132
f 171/218/135 175/221/135 176/222/135 172/219/135
f 175/221/134 173/223/134 174/224/134 176/222/134
f 173/223/133 169/225/133 170/226/133 174/224/133
f 171/227/136 169/228/136 173/223/136 175/221/136
f 176/222/137 174/224/137 170/229/137 172/230/137
f 177/231/134 178/232/134 180/233/134 179/234/134
f 179/234/135 180/233/135 184/235/135 183/236/135
f 183/236/132 184/235/132 182/237/132 181/238/132
f 181/238/133 182/237/133 178/239/133 177/240/133
f 179/241/136 183/236/136 181/238/136 177/242/136
f 184/235/137 180/243/137 178/244/137 182/237/137
